HIERARCHY
ROOT hip
{
	OFFSET 0.000000 0.000000 0.000000 
	CHANNELS 6 Xposition Yposition Zposition Xrotation Zrotation Yrotation
	JOINT abdomen
	{
		OFFSET 0.000000 3.402643 0.000000 
		CHANNELS 3 Xrotation Zrotation Yrotation
		JOINT chest
		{
			OFFSET 0.000000 8.438565 -0.680529 
			CHANNELS 3 Xrotation Zrotation Yrotation
			JOINT neck
			{
				OFFSET 0.000000 10.207942 -0.272212 
				CHANNELS 3 Xrotation Zrotation Yrotation
				JOINT head
				{
					OFFSET 0.000000 3.130431 0.000000 
					CHANNELS 3 Xrotation Zrotation Yrotation
					End Site
					{
						OFFSET 0.000000 3.130435 0.000000 
					}
				}
			}
			JOINT lCollar
			{
				OFFSET 3.470700 6.669187 -0.816635 
				CHANNELS 3 Yrotation Zrotation Xrotation
				JOINT lShldr
				{
					OFFSET 3.198488 0.000000 0.000000 
					CHANNELS 3 Zrotation Yrotation Xrotation
					JOINT lForeArm
					{
						OFFSET 10.139888 0.000000 0.000000 
						CHANNELS 3 Yrotation Zrotation Xrotation
						JOINT lHand
						{
							OFFSET 8.370511 0.000000 0.000000 
							CHANNELS 3 Zrotation Yrotation Xrotation
							End Site
							{
								OFFSET 4.083176 0.000000 0.000000 
							}
						}
					}
				}
			}
			JOINT rCollar
			{
				OFFSET -3.470700 6.669187 -0.816635 
				CHANNELS 3 Yrotation Zrotation Xrotation
				JOINT rShldr
				{
					OFFSET -3.198488 0.000000 0.000000 
					CHANNELS 3 Zrotation Yrotation Xrotation
					JOINT rForeArm
					{
						OFFSET -10.139888 0.000000 0.000000 
						CHANNELS 3 Yrotation Zrotation Xrotation
						JOINT rHand
						{
							OFFSET -8.370511 0.000000 0.000000 
							CHANNELS 3 Zrotation Yrotation Xrotation
							End Site
							{
								OFFSET -4.083176 0.000000 0.000000 
							}
						}
					}
				}
			}
		}
	}
	JOINT lThigh
	{
		OFFSET 5.308129 -1.633274 1.361059 
		CHANNELS 3 Xrotation Zrotation Yrotation
		JOINT lShin
		{
			OFFSET -2.041588 -20.007561 0.000000 
			CHANNELS 3 Xrotation Zrotation Yrotation
			JOINT lFoot
			{
				OFFSET 0.000000 -19.190928 -1.224953 
				CHANNELS 3 Xrotation Yrotation Zrotation
				End Site
				{
					OFFSET 0.000000 -2.449906 4.627600 
				}
			}
		}
	}
	JOINT rThigh
	{
		OFFSET -5.308129 -1.633274 1.361059 
		CHANNELS 3 Xrotation Zrotation Yrotation
		JOINT rShin
		{
			OFFSET 2.041588 -20.007561 0.000000 
			CHANNELS 3 Xrotation Zrotation Yrotation
			JOINT rFoot
			{
				OFFSET 0.000000 -19.190928 -1.224953 
				CHANNELS 3 Xrotation Yrotation Zrotation
				End Site
				{
					OFFSET 0.000000 -2.449906 4.627600 
				}
			}
		}
	}
}
MOTION
Frames: 14
Frame Time: 0.011111
69.904633 51.134743 -4.034985 -0.570531 5.165436 -94.053902 22.181673 -3.231466 8.164292 -30.523132 -1.713335 2.533824 -15.182794 -5.911071 -2.078145 7.152978 15.420272 -5.671697 -10.275489 -5.709454 -1.550532 -73.885811 -19.834881 -21.328732 -57.590931 9.026131 11.336635 8.524705 12.647240 -63.919323 5.831508 6.350754 -0.460990 78.210754 20.672766 -19.372572 51.713543 -8.081571 8.853072 -8.534408 -12.637552 37.074074 -24.755697 7.048566 -3.839468 35.898148 -4.962899 -5.605501 -24.318504 2.969272 -1.068144 -6.949859 -3.991732 -6.803296 27.623480 5.448574 4.514194 -32.845928 2.330935 2.662405 
69.574791 51.263027 -3.914800 -0.830450 5.302043 -94.153999 21.434589 -3.645592 8.117581 -30.063507 -1.408114 2.537802 -15.062789 -5.799985 -2.144869 7.029107 15.240849 -5.765286 -10.275489 -5.709454 -1.550532 -75.063942 -16.752542 -17.119425 -61.583942 9.378614 13.114826 8.524705 12.647240 -61.829483 5.831508 6.350754 -0.460990 78.178070 20.698479 -20.397314 51.430119 -8.021809 8.741069 -8.534408 -12.637552 36.956894 -24.319988 6.619572 -3.662632 35.670525 -4.972313 -5.578783 -24.575266 3.682765 -0.733673 -6.354881 -4.333849 -6.591505 26.699110 5.500900 4.374661 -32.665176 2.017450 2.465679 
69.253738 51.351818 -3.787525 -1.120460 5.407579 -94.274979 20.841972 -4.077628 8.067561 -29.877600 -1.208511 2.553170 -15.098919 -5.641379 -2.222348 7.323631 15.030499 -5.835767 -10.275489 -5.709454 -1.550532 -75.166412 -16.682480 -17.304220 -61.337627 9.361193 12.996121 8.524705 12.647240 -62.015022 5.831508 6.350754 -0.460990 78.269806 20.522196 -21.339218 51.199623 -7.973500 8.648952 -8.534408 -12.637552 36.908062 -23.999287 6.141463 -3.429857 35.699303 -4.981949 -5.574556 -24.666204 4.002821 -0.567542 -5.838190 -4.734653 -6.307721 25.955664 5.527073 4.304106 -32.538979 1.709343 2.311383 
68.934029 51.443306 -3.663288 -1.423258 5.494113 -94.264961 20.344624 -4.468056 7.875869 -29.828598 -1.045369 2.536936 -15.089123 -5.571369 -2.303102 7.715983 14.920991 -5.934492 -10.275489 -5.709454 -1.550532 -75.254082 -16.589682 -17.575838 -61.081673 9.346040 12.887341 8.524705 12.647240 -62.307999 5.831508 6.350754 -0.460990 78.393570 20.251247 -22.167383 51.000420 -7.929765 8.569040 -8.534408 -12.637552 36.868999 -23.679541 5.663589 -3.384765 35.829128 -4.962733 -5.599413 -24.834286 3.825648 -0.631071 -5.201536 -5.103189 -5.925419 25.037811 5.575810 4.173534 -32.428780 1.258630 2.051207 
68.611290 51.528046 -3.547829 -1.834093 5.394045 -94.072769 20.039856 -5.199125 7.699845 -29.935589 -0.861948 2.561356 -14.698475 -5.450102 -2.519135 7.690700 15.020080 -6.254090 -10.275489 -5.709454 -1.550532 -75.129189 -16.297009 -17.275537 -60.868809 9.333142 12.791267 8.524705 12.647240 -62.522842 5.831508 6.350754 -0.460990 78.692726 19.833500 -23.246340 50.927250 -7.914289 8.537994 -8.534408 -12.637552 36.937355 -23.126122 5.076672 -3.324664 35.958225 -4.952525 -5.617942 -25.086905 3.257418 -0.825061 -4.478754 -5.590014 -5.420701 24.321743 5.604575 4.076377 -32.812946 0.815117 1.711589 
68.292603 51.666798 -3.429670 -2.232776 5.305018 -93.906723 19.733093 -6.084599 7.769609 -30.110640 -0.717356 2.658658 -14.316752 -5.151906 -2.877336 7.685832 14.947905 -6.789943 -10.275489 -5.709454 -1.550532 -74.840149 -15.803882 -16.367163 -60.708443 9.319983 12.711175 8.524705 12.647240 -62.415417 5.831508 6.350754 -0.460990 79.136505 19.353973 -24.572584 50.948841 -7.921975 8.547936 -8.534408 -12.637552 37.074074 -22.686689 4.519922 -2.793512 36.097065 -4.942886 -5.636796 -25.035046 2.936908 -0.957161 -3.815114 -6.077446 -4.765299 23.744444 5.637804 3.972713 -33.453026 0.416564 1.368661 
67.982338 51.678276 -3.291592 -2.528502 5.317354 -93.776917 19.293842 -6.660224 7.773860 -30.110367 -0.625162 2.698776 -14.210365 -4.979887 -3.105465 8.104589 14.826133 -7.135322 -10.275489 -5.709454 -1.550532 -74.666000 -15.462172 -15.748799 -60.581715 9.314965 12.660920 8.524705 12.647240 -62.259171 5.831508 6.350754 -0.460990 79.441162 18.966478 -25.548059 50.969185 -7.924110 8.558769 -8.534408 -12.637552 37.308453 -22.232836 4.071688 -2.301285 36.107727 -4.933125 -5.644395 -25.078197 2.452102 -1.171816 -3.426289 -6.471003 -4.222976 23.453373 5.633849 3.965053 -33.903301 -0.215477 0.919843 
67.674110 51.674225 -3.137984 -2.835942 5.321249 -93.605957 18.883919 -7.057152 7.594267 -29.973759 -0.553820 2.689922 -14.105982 -4.989415 -3.216904 8.414222 14.878675 -7.294104 -10.275489 -5.709454 -1.550532 -74.623672 -15.334686 -15.522220 -60.496742 9.309793 12.624159 8.524705 12.647240 -62.220108 5.831508 6.350754 -0.460990 79.654060 18.607634 -25.994637 51.063957 -7.947151 8.597132 -8.534408 -12.637552 37.835796 -21.713806 3.573295 -1.935887 36.058289 -4.942818 -5.613953 -25.152218 1.943396 -1.356952 -3.162598 -6.860937 -3.890155 23.423580 5.633684 3.952674 -34.163857 -0.965731 0.396277 
67.380737 51.664436 -2.975599 -3.107070 5.374693 -93.482445 18.466030 -7.381364 7.433645 -29.768946 -0.448505 2.657858 -14.011038 -5.037004 -3.277411 8.455875 14.899207 -7.432573 -10.275489 -5.709454 -1.550532 -74.665215 -15.322674 -15.280332 -60.485867 9.308846 12.623591 8.524705 12.647240 -62.102913 5.831508 6.350754 -0.460990 79.741264 18.312813 -26.041843 51.262112 -7.984503 8.671002 -8.534408 -12.637552 38.734234 -21.220053 3.105170 -1.655244 35.888641 -4.962690 -5.594892 -25.254782 1.484940 -1.566374 -3.132810 -7.250164 -3.471806 23.726133 5.624062 4.007199 -34.589649 -1.533810 -0.052238 
67.095802 51.649242 -2.802410 -3.349636 5.377489 -93.469666 18.092190 -7.696292 7.380212 -29.554243 -0.310837 2.662894 -13.964240 -5.065410 -3.326680 8.530213 14.868709 -7.519493 -10.275489 -5.709454 -1.550532 -74.749870 -15.338764 -14.914297 -60.507465 9.311364 12.634477 8.524705 12.647240 -61.946667 5.831508 6.350754 -0.460990 79.717453 18.044359 -25.823454 51.504402 -8.042621 8.780095 -8.534408 -12.637552 39.788921 -20.635031 2.645038 -1.316863 35.701267 -4.956902 -5.596148 -25.446115 1.155796 -1.679698 -3.124155 -7.653501 -2.975560 24.099226 5.614717 4.048458 -35.093487 -1.887813 -0.388129 
66.813904 51.628651 -2.619094 -3.569657 5.272537 -93.489670 17.859451 -7.968422 7.407350 -29.398018 -0.207767 2.691924 -13.993843 -5.052517 -3.346365 8.766924 14.762272 -7.546112 -10.275489 -5.709454 -1.550532 -74.800819 -15.328547 -14.487407 -60.527660 9.309064 12.638556 8.524705 12.647240 -61.897839 5.831508 6.350754 -0.460990 79.709412 17.728563 -25.615225 51.797489 -8.099818 8.894049 -8.534408 -12.637552 40.609234 -19.951345 2.205983 -0.961455 35.520569 -4.991692 -5.561914 -25.643219 0.861535 -1.794141 -3.007318 -8.055070 -2.685593 24.494320 5.589946 4.118420 -35.627605 -2.141285 -0.685652 
66.529312 51.607380 -2.432402 -3.760323 5.137388 -93.562958 17.657513 -8.223917 7.439172 -29.261339 -0.084464 2.719975 -14.199973 -5.043246 -3.362801 9.410784 14.583144 -7.534150 -10.275489 -5.709454 -1.550532 -74.894890 -15.346441 -14.170716 -60.495346 9.304984 12.615773 8.524705 12.647240 -61.966194 5.831508 6.350754 -0.460990 79.676071 17.380301 -25.406603 52.081001 -8.157422 9.007198 -8.534408 -12.637552 41.185406 -19.227386 1.835660 -0.504064 35.322441 -5.001150 -5.537743 -25.856068 0.498136 -1.933045 -2.850676 -8.443161 -2.376069 24.887777 5.575143 4.160250 -35.913822 -2.263612 -0.826969 
66.247078 51.589828 -2.241321 -4.047734 4.936308 -93.749290 17.584330 -8.602924 7.484881 -29.095394 0.106985 2.762729 -14.456196 -5.053246 -3.399552 10.071662 14.354699 -7.577067 -10.275489 -5.709454 -1.550532 -75.019890 -15.499642 -13.992061 -60.379414 9.300259 12.566294 8.524705 12.647240 -62.141983 5.831508 6.350754 -0.460990 79.561790 17.052099 -25.066763 52.364388 -8.213972 9.130960 -8.534408 -12.637552 41.702984 -18.372955 1.385962 0.026103 35.114281 -5.011395 -5.512218 -26.151644 0.099160 -2.075262 -2.615561 -8.986804 -2.094001 25.301342 5.556263 4.212651 -36.016296 -2.165332 -0.786827 
65.995567 51.576660 -2.057329 -4.333133 4.745276 -93.905289 17.606071 -8.949831 7.492843 -29.075764 0.148054 2.798641 -14.671193 -4.960357 -3.478096 10.549520 14.048804 -7.698874 -10.275489 -5.709454 -1.550532 -74.996300 -15.614603 -13.706954 -60.240295 9.288321 12.507455 8.524705 12.647240 -62.327526 5.831508 6.350754 -0.460990 79.611298 16.664358 -24.681566 52.721283 -8.281136 9.276847 -8.534408 -12.637552 42.161964 -17.621918 0.946480 0.516680 34.924740 -5.030630 -5.491718 -26.390476 -0.352334 -2.266308 -2.498355 -9.493973 -1.909550 25.746643 5.526250 4.266129 -36.003738 -2.221408 -0.819324 
